<?xml version="1.0" standalone="no"?>
<!DOCTYPE svg PUBLIC "-//W3C//DTD SVG 20010904//EN"
 "http://www.w3.org/TR/2001/REC-SVG-20010904/DTD/svg10.dtd">
<svg version="1.0" xmlns="http://www.w3.org/2000/svg"
 width="1280.000000pt" height="1259.000000pt" viewBox="0 0 1280.000000 1259.000000"
 preserveAspectRatio="xMidYMid meet">

<g transform="translate(0.000000,1259.000000) scale(0.100000,-0.100000)"
fill="#000000" stroke="none">
<path d="M5655 11772 l-710 -708 -80 -18 c-44 -9 -109 -23 -145 -30 -36 -7
-87 -20 -115 -29 -27 -8 -88 -25 -135 -37 -161 -42 -446 -132 -615 -195 -38
-15 -88 -32 -110 -40 -22 -7 -69 -26 -105 -40 -36 -15 -85 -35 -110 -45 -77
-30 -174 -72 -255 -110 -69 -32 -509 -250 -525 -260 -8 -5 -76 -44 -150 -85
-200 -113 -366 -216 -575 -358 -178 -121 -487 -364 -505 -397 -24 -45 -15 -61
171 -281 142 -170 279 -335 419 -503 68 -83 134 -162 147 -176 13 -14 23 -34
23 -45 0 -12 -103 -123 -288 -307 l-287 -288 -400 -1 c-220 -1 -411 -4 -424
-8 -13 -3 -33 -18 -43 -32 -19 -25 -19 -26 15 -145 19 -65 47 -166 62 -224 15
-58 36 -132 45 -165 10 -33 20 -77 24 -99 l7 -39 -390 -391 c-362 -363 -391
-394 -391 -426 0 -32 46 -80 699 -735 526 -526 701 -707 706 -730 4 -16 15
-59 26 -94 10 -35 19 -70 19 -77 0 -8 9 -42 20 -76 11 -35 26 -90 35 -123 9
-33 25 -94 36 -135 11 -41 29 -106 39 -145 33 -123 51 -173 67 -187 12 -10 90
-14 331 -18 l315 -5 1956 -1962 c1301 -1305 1965 -1964 1983 -1968 14 -4 37
-1 50 5 12 7 122 113 243 235 121 123 391 396 600 607 209 211 758 765 1220
1232 462 466 923 934 1025 1039 102 105 304 312 450 459 292 294 248 263 460
333 368 121 721 396 944 736 27 41 56 85 66 99 38 58 140 282 170 375 18 55
40 114 48 132 9 17 215 231 460 475 244 243 448 453 453 466 5 13 5 32 -1 46
-5 14 -468 484 -1030 1045 -626 627 -1020 1028 -1020 1040 0 10 48 79 108 154
59 74 157 199 217 277 61 78 166 214 235 301 267 339 260 329 260 366 0 45
-52 94 -273 256 -125 91 -461 315 -542 361 -16 10 -47 27 -67 39 -20 12 -83
48 -140 80 -57 32 -110 62 -118 67 -17 10 -463 232 -525 260 -38 18 -207 90
-305 130 -25 10 -76 31 -115 45 -38 14 -91 35 -117 46 -26 10 -52 19 -58 19
-7 0 -26 6 -43 14 -48 22 -165 60 -422 136 -174 52 -188 55 -380 100 -44 10
-111 25 -150 34 -163 38 -203 46 -250 52 -27 4 -62 13 -76 20 -14 7 -325 312
-690 677 -365 365 -674 669 -686 675 -60 32 -33 56 -788 -696z m1375 13 c408
-408 611 -618 604 -625 -9 -9 -55 -2 -194 26 -16 3 -201 181 -515 495 -442
441 -494 489 -523 489 -28 0 -81 -50 -541 -508 l-509 -509 -83 -12 c-46 -6
-97 -15 -113 -18 -25 -5 -27 -4 -18 12 15 28 1254 1265 1266 1265 6 0 288
-277 626 -615z m-30 -640 c140 -8 298 -21 350 -29 52 -8 124 -17 160 -21 36
-3 99 -12 140 -20 41 -8 100 -17 130 -20 30 -4 73 -11 95 -17 22 -6 83 -19
135 -29 212 -40 381 -80 473 -110 31 -10 64 -19 72 -19 8 0 41 -8 72 -19 32
-10 99 -31 148 -46 121 -38 354 -117 440 -150 39 -14 88 -32 110 -40 22 -7 54
-20 70 -29 17 -9 34 -16 38 -16 5 0 23 -6 40 -14 18 -8 109 -48 202 -90 402
-177 773 -380 1138 -622 67 -44 142 -95 167 -112 25 -18 56 -40 70 -50 68 -46
247 -187 262 -206 10 -11 18 -27 18 -35 0 -15 -56 -91 -212 -289 -57 -71 -146
-185 -200 -253 -53 -68 -150 -192 -215 -276 -65 -83 -130 -166 -143 -183 -27
-35 -220 -282 -342 -437 -44 -55 -89 -104 -101 -107 -47 -12 -137 17 -137 44
0 5 891 1198 1024 1371 53 69 55 89 11 138 -116 128 -630 472 -1000 668 -275
146 -504 251 -817 374 -82 32 -314 114 -403 142 -203 63 -238 74 -440 128
-182 49 -612 136 -760 154 -27 3 -93 13 -145 21 -99 15 -351 39 -575 54 -170
12 -718 12 -865 0 -235 -18 -467 -41 -520 -50 -30 -6 -91 -14 -135 -20 -384
-46 -1079 -224 -1475 -377 -348 -134 -666 -279 -912 -415 -114 -64 -280 -160
-303 -175 -11 -7 -81 -53 -156 -102 -178 -116 -296 -202 -447 -324 -137 -111
-152 -128 -152 -173 0 -31 29 -72 204 -296 34 -43 100 -128 148 -190 48 -62
134 -172 190 -245 57 -72 175 -225 263 -339 88 -114 204 -264 258 -333 75 -97
97 -132 97 -156 0 -31 -51 -125 -69 -125 -11 0 -102 103 -251 284 -63 76 -167
200 -230 276 -63 76 -198 239 -300 362 -101 122 -187 225 -191 228 -3 3 -59
70 -124 150 -65 80 -123 150 -129 155 -6 6 -53 61 -104 122 -72 87 -92 117
-87 133 3 11 41 48 83 82 42 35 82 66 87 71 68 55 295 219 386 277 112 72 217
139 272 174 140 87 435 249 637 348 230 113 246 121 415 193 203 87 222 95
230 95 8 0 122 43 160 60 25 12 129 48 175 61 19 5 51 16 70 24 41 16 165 53
420 126 79 23 180 48 240 60 25 5 81 18 125 29 149 35 486 94 630 110 55 6
123 15 150 20 42 8 227 21 645 44 101 6 410 -3 690 -19z m-691 -505 c125 -25
208 -61 221 -96 13 -34 13 -250 0 -275 -11 -20 -45 -26 -54 -10 -10 16 -128
67 -198 85 -127 35 -259 4 -339 -78 -90 -93 -135 -261 -110 -413 49 -306 317
-414 623 -251 46 24 61 29 71 19 16 -16 23 -262 7 -290 -6 -12 -27 -28 -48
-37 -67 -28 -248 -64 -324 -64 -252 1 -472 162 -581 425 -65 157 -61 434 8
589 69 155 189 287 323 355 56 29 184 59 250 60 30 1 98 -8 151 -19z m641 -14
c117 -14 273 -35 455 -61 55 -8 127 -17 160 -20 94 -9 102 -13 109 -41 9 -36
-24 -201 -43 -218 -13 -12 -36 -12 -138 -3 -131 12 -153 6 -153 -36 0 -11 -11
-88 -24 -171 -13 -83 -34 -218 -46 -301 -12 -82 -28 -186 -36 -230 -7 -44 -20
-132 -29 -194 -20 -158 -20 -158 -159 -138 -58 9 -111 19 -117 23 -16 10 -5
106 91 744 10 69 22 152 25 185 4 33 11 76 16 96 5 20 7 44 3 52 -10 27 -88
49 -217 62 -102 10 -111 22 -102 138 11 137 8 136 205 113z m-2204 -206 c173
-18 328 -95 450 -221 244 -256 282 -621 95 -919 -104 -166 -278 -285 -483
-330 -110 -25 -178 -25 -296 0 -266 56 -474 242 -563 505 -21 62 -24 88 -24
225 0 144 2 161 28 236 94 274 337 474 612 503 44 5 82 9 85 9 3 1 46 -3 96
-8z m3784 -40 c368 -82 620 -442 571 -818 -38 -289 -224 -516 -506 -618 -75
-27 -89 -28 -235 -28 -145 0 -160 2 -235 29 -143 51 -255 130 -351 250 -81
101 -125 203 -150 350 -15 86 -15 112 -5 190 15 104 50 216 94 295 17 30 74
98 127 151 80 80 109 102 185 139 162 79 331 99 505 60z m1253 -481 c266 -133
371 -210 455 -330 64 -94 85 -155 86 -254 0 -82 -2 -95 -31 -150 -85 -164
-239 -230 -481 -205 -81 8 -117 9 -125 1 -11 -11 -10 -22 38 -246 14 -66 34
-163 45 -215 11 -52 26 -124 35 -160 18 -82 19 -129 2 -136 -18 -7 -194 87
-212 113 -13 19 -43 146 -75 323 -6 30 -19 93 -30 140 -10 47 -28 130 -40 185
-39 183 -50 176 -210 -141 -146 -289 -133 -279 -255 -218 -54 26 -77 43 -81
60 -4 17 26 85 112 256 64 128 209 415 321 637 111 222 208 410 214 417 6 8
20 14 30 14 11 0 101 -41 202 -91z m-6417 -150 c121 -37 196 -82 297 -178 103
-97 196 -242 242 -376 33 -95 45 -264 26 -356 -29 -140 -117 -252 -291 -372
-189 -130 -316 -208 -334 -205 -23 3 -36 21 -341 468 -43 63 -94 138 -114 165
-19 28 -54 77 -76 110 -23 33 -64 92 -90 130 -27 39 -72 103 -100 144 -27 40
-56 81 -64 92 -27 38 -7 61 151 165 301 199 378 233 529 234 71 0 115 -6 165
-21z m3487 -959 c167 -10 356 -32 532 -61 66 -11 136 -22 155 -25 35 -5 215
-44 325 -70 120 -28 343 -94 465 -136 47 -16 105 -36 130 -44 25 -8 54 -18 65
-24 11 -5 61 -25 110 -44 174 -68 297 -124 480 -217 269 -137 373 -196 386
-221 16 -30 1 -38 -87 -49 -44 -5 -92 -14 -108 -19 -47 -16 -78 -11 -136 21
-227 128 -559 284 -775 364 -38 14 -81 31 -95 36 -37 16 -252 87 -350 116
-356 104 -757 177 -1120 204 -171 13 -720 6 -830 -10 -36 -6 -119 -17 -185
-25 -443 -58 -979 -213 -1430 -413 -210 -94 -611 -305 -724 -382 -47 -32 -201
-135 -236 -158 -33 -22 -34 -22 -57 -4 -13 11 -34 42 -48 70 -30 65 -24 77 78
152 287 212 625 396 1062 579 136 57 386 139 620 204 241 66 702 141 960 156
185 10 644 11 813 0z m-146 -239 c66 -5 132 -15 145 -21 31 -16 658 -642 658
-657 0 -9 -107 -13 -460 -15 l-460 -3 -32 -33 -33 -32 -3 -472 c-2 -358 -6
-474 -15 -480 -19 -12 -82 -9 -101 5 -16 12 -18 44 -22 418 -5 479 -9 541 -34
571 l-18 23 -508 5 c-376 4 -508 8 -511 17 -6 16 623 642 650 648 44 10 375
32 497 33 69 1 180 -3 247 -7z m-4326 -263 c22 -24 39 -49 39 -56 0 -15 -337
-356 -379 -384 -19 -13 -47 -18 -103 -18 -78 0 -93 6 -79 29 15 24 465 471
474 471 5 0 27 -19 48 -42z m9167 -1021 c551 -551 1002 -1008 1002 -1016 0
-17 -741 -761 -758 -761 -11 0 -12 17 -7 88 4 48 11 96 15 107 5 11 117 128
249 260 133 132 249 253 257 269 10 17 13 38 9 55 -4 17 -327 347 -936 956
-511 512 -929 937 -929 946 0 22 62 99 80 99 8 0 466 -451 1018 -1003z m-1388
564 c256 -58 439 -131 635 -251 345 -211 641 -565 788 -945 60 -154 91 -265
118 -420 74 -426 2 -904 -196 -1290 -198 -387 -488 -672 -870 -855 -239 -114
-543 -180 -830 -180 -159 0 -431 33 -543 66 -301 88 -482 177 -690 339 -95 73
-252 231 -312 313 -24 34 -48 62 -52 62 -19 0 -23 -48 -28 -321 -4 -230 -8
-300 -19 -312 -12 -16 -80 -17 -782 -17 -684 0 -769 2 -783 16 -14 14 -16 79
-16 570 0 364 -4 562 -10 575 -10 17 -22 19 -130 19 -108 0 -120 -2 -130 -19
-6 -13 -10 -211 -10 -575 0 -491 -2 -556 -16 -570 -14 -14 -96 -16 -754 -16
-580 0 -741 3 -747 13 -4 6 -10 221 -13 477 -3 256 -9 465 -13 465 -17 0 -57
-95 -108 -255 -49 -155 -141 -439 -191 -594 -13 -37 -32 -75 -43 -82 -16 -11
-99 -14 -448 -14 l-428 0 -23 23 c-13 13 -101 182 -197 375 -173 351 -188 375
-217 340 -5 -7 -38 -76 -72 -153 -34 -77 -86 -191 -116 -254 -30 -62 -54 -115
-54 -118 0 -21 -93 -194 -109 -202 -13 -7 -155 -11 -424 -11 -371 0 -406 1
-424 18 -11 9 -29 54 -42 102 -12 47 -31 114 -41 150 -11 36 -27 94 -36 130
-9 36 -25 97 -36 135 -11 39 -28 102 -38 140 -18 69 -54 203 -92 340 -31 114
-56 205 -77 285 -10 41 -31 118 -46 170 -15 52 -35 128 -46 168 -10 39 -28
105 -38 145 -11 39 -31 115 -46 167 -15 52 -36 129 -46 170 -42 157 -58 218
-84 310 -15 52 -34 124 -41 159 -8 35 -17 68 -21 74 -3 6 -14 42 -24 81 -10
39 -27 105 -38 146 -11 41 -25 95 -32 120 -6 25 -18 68 -27 95 -8 28 -21 75
-28 105 -7 30 -25 98 -39 150 -15 52 -34 127 -44 165 -10 39 -23 83 -30 98
-16 42 -14 94 5 101 9 3 341 6 738 6 l723 0 21 -22 c11 -13 35 -68 53 -123
121 -376 212 -642 223 -653 19 -19 40 -6 62 41 18 39 70 137 231 447 34 63 84
159 112 214 68 131 85 154 106 141 9 -6 50 -75 91 -155 42 -80 123 -237 181
-350 58 -113 124 -240 145 -282 21 -43 45 -78 52 -78 19 0 41 30 59 80 9 25
28 77 42 115 15 39 33 88 40 110 8 22 28 76 45 120 17 44 37 98 45 120 7 22
26 72 40 110 15 39 33 91 41 116 27 87 -70 80 1191 77 1023 -3 1114 -4 1129
-20 15 -15 17 -66 22 -499 5 -460 6 -483 24 -501 18 -18 32 -19 127 -16 73 2
113 8 124 17 15 12 17 59 17 492 0 467 1 480 20 499 20 20 30 20 780 18 542
-2 762 -6 770 -14 8 -8 12 -109 13 -320 2 -270 4 -309 18 -312 9 -1 28 16 46
41 41 57 181 196 267 266 208 169 548 332 769 371 34 6 76 15 92 20 68 22 184
28 430 26 225 -2 273 -6 355 -25z m-9131 -896 c11 -36 21 -70 21 -76 0 -6
-114 -125 -252 -265 -139 -140 -257 -265 -262 -278 -5 -13 -6 -36 -2 -51 5
-19 158 -179 472 -494 399 -399 466 -470 475 -505 6 -23 20 -70 30 -105 21
-70 24 -101 10 -101 -17 0 -1221 1211 -1221 1228 0 15 686 712 701 712 3 0 16
-29 28 -65z m5469 -1827 c9 -9 12 -147 12 -558 0 -607 -3 -580 68 -600 20 -5
67 -10 104 -10 37 0 69 -4 73 -9 6 -11 -48 -77 -75 -91 -10 -6 -63 -5 -136 1
-80 6 -162 6 -252 -1 -145 -11 -153 -10 -203 42 -50 53 -42 58 81 58 119 0
170 13 189 48 8 14 11 194 11 564 0 410 3 547 12 556 16 16 100 16 116 0z
m-1808 -843 c6 -294 6 -295 79 -315 20 -6 166 -10 334 -10 199 0 306 -4 320
-11 34 -17 237 -222 237 -239 0 -9 -32 -31 -78 -54 -111 -56 -250 -135 -304
-173 -26 -18 -54 -33 -61 -33 -7 0 -162 150 -345 334 -230 231 -332 340 -332
355 0 18 56 201 91 296 6 17 15 46 20 65 6 19 12 41 15 49 13 40 19 -26 24
-264z m3698 91 c57 -57 91 -100 87 -107 -22 -34 -204 -219 -217 -219 -9 0 -11
424 -2 433 12 11 37 -10 132 -107z m-5381 -588 c106 -106 193 -198 193 -204 0
-10 -83 -94 -93 -94 -7 0 -467 463 -467 470 0 16 18 20 94 20 l81 0 192 -192z
m5153 157 c0 -8 -42 -59 -93 -113 -52 -53 -123 -128 -158 -167 -174 -188 -216
-227 -238 -220 -12 3 -55 29 -95 56 -73 48 -345 191 -385 202 -12 3 -21 11
-21 17 0 14 174 199 210 223 22 15 67 16 403 17 329 0 377 -2 377 -15z m-3865
-74 c235 -41 438 -137 655 -310 36 -28 333 -318 660 -644 543 -541 788 -778
827 -800 29 -17 61 5 173 120 458 473 1131 1146 1182 1183 284 206 462 295
748 372 74 20 108 23 270 22 171 0 192 -2 279 -27 184 -52 372 -163 524 -308
52 -50 67 -71 67 -93 0 -23 -71 -100 -458 -489 -252 -254 -663 -669 -913 -922
-250 -253 -639 -646 -864 -873 -226 -228 -536 -541 -690 -698 -154 -156 -287
-284 -295 -284 -8 0 -26 11 -40 23 -31 30 -2552 2565 -2949 2966 -191 193
-291 301 -291 315 0 25 104 127 204 200 182 133 359 212 556 246 138 24 221
24 355 1z m5835 -29 c0 -16 -367 -372 -384 -372 -26 0 -98 74 -90 93 5 14 182
196 243 251 12 11 38 22 59 26 51 11 172 12 172 2z"/>
<path d="M4539 10151 c-177 -57 -306 -191 -349 -364 -19 -75 -8 -210 23 -286
61 -146 187 -256 332 -287 177 -39 337 7 460 131 72 74 108 143 130 253 16 76
16 88 0 165 -35 176 -130 293 -295 366 -45 20 -75 25 -165 27 -60 2 -122 0
-136 -5z"/>
<path d="M8250 10121 c-101 -23 -153 -52 -226 -125 -151 -152 -187 -370 -92
-560 54 -108 149 -191 268 -236 95 -36 237 -35 333 3 118 46 225 150 277 269
21 46 24 69 25 173 0 111 -2 126 -30 195 -24 60 -44 89 -100 146 -82 83 -147
120 -252 140 -91 17 -108 17 -203 -5z"/>
<path d="M9682 9693 c-33 -48 -202 -392 -202 -412 0 -24 26 -41 120 -78 227
-90 360 -79 440 38 32 47 35 58 35 123 0 64 -4 77 -34 124 -19 30 -60 72 -98
101 -64 48 -211 131 -231 131 -6 0 -19 -12 -30 -27z"/>
<path d="M3089 9471 c-15 -5 -59 -28 -98 -51 -58 -35 -71 -47 -71 -67 0 -17
55 -104 154 -247 84 -121 181 -261 214 -311 93 -137 104 -149 133 -142 38 10
146 93 173 135 54 80 57 212 9 326 -57 136 -180 278 -287 333 -54 27 -177 40
-227 24z"/>
<path d="M4123 7618 c-11 -13 -52 -122 -93 -248 -40 -124 -87 -270 -105 -325
-18 -55 -65 -201 -104 -325 -40 -124 -80 -241 -89 -260 -34 -69 -7 -114 -403
672 -55 109 -108 202 -119 208 -29 15 -65 12 -83 -8 -9 -9 -84 -157 -167 -327
-248 -507 -262 -534 -277 -547 -19 -16 -27 -5 -57 87 -54 165 -146 449 -236
725 -73 226 -97 290 -118 309 l-26 24 -321 -7 c-524 -12 -740 -23 -775 -41
-36 -18 -39 -48 -14 -134 41 -141 57 -197 99 -351 49 -177 70 -253 111 -395
27 -95 48 -169 84 -300 23 -82 46 -165 80 -282 11 -38 31 -111 45 -163 15 -52
35 -124 45 -160 10 -36 39 -139 65 -230 52 -188 76 -271 105 -368 11 -37 20
-71 20 -77 0 -5 11 -48 25 -95 26 -84 41 -137 85 -295 12 -44 30 -107 40 -140
10 -33 32 -114 50 -180 18 -66 40 -132 48 -147 28 -48 48 -50 330 -41 301 9
287 5 334 115 34 80 112 265 144 343 14 33 29 69 34 80 5 11 23 54 40 95 17
41 37 89 45 105 8 17 21 48 30 70 105 254 116 275 138 275 6 0 51 -80 99 -178
422 -864 426 -872 464 -888 29 -12 82 -14 289 -12 302 4 289 -2 331 137 14 47
56 178 94 291 70 211 173 526 331 1015 50 154 97 296 104 315 7 19 25 76 40
125 15 50 37 115 51 146 13 31 24 62 24 68 0 20 18 12 24 -11 3 -13 6 -462 6
-998 0 -643 4 -988 10 -1012 6 -21 21 -43 33 -49 14 -8 171 -14 506 -20 519
-8 525 -7 551 40 6 13 10 218 10 589 0 481 2 571 14 581 15 12 115 17 478 25
171 3 178 2 197 -18 20 -21 21 -36 23 -614 3 -552 4 -592 21 -609 16 -17 56
-18 545 -23 290 -3 543 -3 562 0 70 10 68 -15 62 759 -3 470 -2 690 5 694 18
11 42 -38 53 -110 13 -79 41 -180 77 -273 32 -83 99 -225 122 -259 10 -14 31
-46 47 -71 213 -333 555 -598 919 -713 195 -61 309 -83 500 -93 123 -7 321 13
465 47 385 93 721 303 962 603 170 211 262 391 343 669 71 246 71 648 -1 891
-82 280 -178 468 -343 671 -88 109 -232 248 -311 301 -19 13 -55 38 -80 55
-102 73 -304 168 -460 217 -179 56 -261 67 -510 67 -250 0 -288 -5 -495 -62
-461 -129 -868 -468 -1088 -909 -76 -150 -126 -298 -147 -428 -6 -37 -21 -87
-33 -110 l-22 -41 -6 370 c-3 204 -7 537 -8 742 -1 254 -5 380 -12 397 -7 14
-25 30 -42 36 -33 11 -1025 13 -1066 1 -13 -3 -33 -18 -44 -33 -19 -26 -20
-47 -24 -510 -3 -281 -9 -497 -15 -515 l-10 -33 -333 0 c-331 0 -334 0 -346
21 -8 16 -9 154 -4 523 l7 501 -22 28 -21 27 -958 0 -958 0 -20 -22z m5795
-1083 c262 -50 478 -262 533 -524 7 -34 10 -104 6 -180 -4 -103 -9 -138 -30
-192 -96 -249 -288 -406 -543 -444 -151 -23 -268 -3 -414 68 -113 56 -226 167
-287 283 -48 91 -83 229 -83 326 0 72 29 200 61 273 57 132 191 269 324 334
134 66 281 85 433 56z m-7333 -210 c26 -88 82 -111 127 -52 14 17 33 47 43 66
16 31 19 33 30 18 11 -15 47 -17 392 -17 326 0 382 2 393 15 18 21 29 19 36
-10 3 -13 13 -30 21 -36 8 -7 21 -28 29 -48 17 -41 29 -51 65 -51 31 0 44 14
53 57 4 17 14 37 23 44 8 7 19 24 24 37 9 23 11 24 28 8 16 -14 67 -16 489
-16 308 0 472 3 472 10 0 6 6 10 14 10 23 0 28 -51 10 -115 -9 -33 -22 -82
-29 -110 -19 -69 -51 -172 -69 -220 -8 -22 -15 -47 -16 -55 0 -8 -9 -33 -20
-55 -11 -22 -20 -49 -20 -60 0 -11 -9 -38 -20 -60 -11 -22 -20 -47 -20 -55 0
-8 -11 -37 -25 -65 -13 -27 -25 -57 -25 -65 -1 -20 -24 -50 -39 -50 -6 0 -11
-3 -11 -7 0 -5 -304 -8 -675 -8 l-674 0 -12 23 c-10 18 -21 22 -61 22 -48 0
-49 -1 -67 -42 -16 -39 -19 -41 -25 -21 l-7 23 -577 2 c-548 3 -578 2 -595
-15 -21 -21 -19 -22 -36 21 -8 17 -17 32 -22 32 -4 0 -13 19 -19 43 -6 23 -20
65 -30 92 -10 28 -28 86 -40 130 -12 44 -31 107 -41 140 -18 57 -36 125 -60
225 -6 25 -15 65 -21 90 -15 59 -22 136 -14 157 6 14 8 14 24 -1 17 -14 67
-16 485 -16 456 0 467 0 477 20 6 11 13 20 15 20 2 0 12 -25 20 -55z m3925 17
l1361 3 17 -55 c15 -48 17 -104 17 -425 0 -340 -1 -372 -18 -400 l-18 -30
-469 0 -468 0 -11 32 c-7 18 -24 42 -39 54 -27 22 -27 22 -432 15 -453 -7
-445 -6 -456 -76 -7 -45 -20 -59 -28 -33 -5 17 -31 18 -418 15 -363 -3 -413
-5 -423 -19 -8 -11 -14 -13 -19 -5 -9 15 -25 343 -26 527 0 156 16 410 27 428
4 6 13 1 24 -12 l17 -21 1362 2z m4860 -13 c0 -9 9 -24 19 -33 11 -10 23 -37
26 -59 4 -23 15 -75 26 -116 28 -108 27 -383 -1 -496 -11 -44 -20 -89 -20
-100 0 -11 -11 -40 -24 -65 -13 -25 -26 -58 -30 -74 -7 -27 -8 -27 -25 -12
-17 15 -61 17 -440 16 -231 0 -434 -3 -450 -6 -27 -6 -28 -4 -24 22 3 16 11
36 18 44 19 23 61 127 85 213 20 70 22 95 17 230 -4 127 -9 164 -30 227 -26
79 -59 154 -79 182 -17 23 5 49 24 30 9 -9 120 -12 440 -12 l428 0 12 25 c8
19 14 22 20 13 4 -7 8 -20 8 -29z m-2714 -9 c219 0 417 5 439 10 46 10 50 9
36 -17 -29 -54 -73 -165 -91 -228 -4 -16 -13 -75 -20 -130 -10 -84 -10 -116 3
-203 16 -104 50 -224 72 -252 14 -19 55 -98 55 -108 0 -4 -203 -6 -450 -4
-400 3 -451 1 -456 -12 -9 -23 -21 -20 -30 6 -3 12 -13 28 -20 36 -8 7 -16 25
-20 40 -3 15 -14 56 -26 92 -42 133 -45 533 -5 630 8 19 20 59 27 88 7 29 18
52 25 52 7 0 16 7 19 16 6 16 8 16 24 0 17 -14 62 -16 418 -16z"/>
<path d="M9664 6365 c-278 -60 -455 -362 -374 -635 28 -95 64 -155 135 -226
70 -71 150 -115 252 -138 90 -20 126 -20 216 0 268 60 434 302 397 577 -16
113 -58 196 -145 283 -39 39 -94 83 -124 98 -102 52 -236 68 -357 41z"/>
<path d="M3985 3639 c-158 -18 -344 -89 -447 -170 -41 -33 -54 -64 -43 -100 4
-13 664 -680 1465 -1483 1414 -1417 1459 -1460 1495 -1460 36 0 80 43 1475
1440 934 935 1441 1449 1445 1466 9 36 -7 61 -68 107 -220 165 -504 206 -806
115 -165 -50 -396 -177 -555 -306 -28 -23 -373 -363 -767 -755 -627 -625 -718
-713 -737 -706 -12 5 -250 235 -529 513 -523 519 -630 624 -888 867 -173 162
-242 221 -340 285 -150 99 -336 171 -475 183 -36 3 -83 7 -105 9 -22 2 -76 0
-120 -5z"/>
</g>
</svg>
